<svg xmlns="http://www.w3.org/2000/svg" xmlns:xlink="http://www.w3.org/1999/xlink" viewBox="0 0 530.69 445.16"><defs><style>.cls-1,.cls-21,.cls-22,.cls-3{fill:none;}.cls-2{fill:#c71be2;}.cls-21,.cls-3{stroke:#252525;}.cls-21,.cls-22,.cls-3{stroke-miterlimit:10;}.cls-3{stroke-width:5px;}.cls-4{fill:#274cf2;}.cls-5{clip-path:url(#clip-path);}.cls-6{fill:url(#linear-gradient);}.cls-7{fill:#02e2bd;}.cls-11,.cls-8{fill:#ffd854;}.cls-9{clip-path:url(#clip-path-2);}.cls-10{fill:url(#linear-gradient-2);}.cls-11{fill-rule:evenodd;}.cls-12{clip-path:url(#clip-path-3);}.cls-13{fill:url(#linear-gradient-3);}.cls-14{clip-path:url(#clip-path-4);}.cls-15{fill:url(#linear-gradient-4);}.cls-16{clip-path:url(#clip-path-5);}.cls-17{fill:url(#linear-gradient-5);}.cls-18{fill:#252525;}.cls-19{fill:#f698ff;}.cls-20{fill:#04a0e8;}.cls-22{stroke:#274cf2;}</style><clipPath id="clip-path"><polygon class="cls-1" points="32.09 202.26 32.09 297.38 69.5 254.59 105.98 302.97 131.37 277.59 156.13 300.99 156.13 202.26 32.09 202.26"/></clipPath><linearGradient id="linear-gradient" x1="7258.47" y1="87.83" x2="7259.47" y2="87.83" gradientTransform="matrix(124.04, 0, 0, -124.04, -900309.07, 11147.02)" gradientUnits="userSpaceOnUse"><stop offset="0" stop-color="#04a0e8"/><stop offset="1" stop-color="#274cf2"/></linearGradient><clipPath id="clip-path-2"><polygon class="cls-1" points="398.48 159.15 398.48 279.54 478.01 279.54 518.89 238.66 518.89 159.15 398.48 159.15"/></clipPath><linearGradient id="linear-gradient-2" x1="7271.1" y1="53.27" x2="7272.1" y2="53.27" gradientTransform="matrix(98.19, 69.69, 69.69, -98.19, -717265.47, -501356.36)" gradientUnits="userSpaceOnUse"><stop offset="0" stop-color="#ffd854"/><stop offset="1" stop-color="#ff7c00"/></linearGradient><clipPath id="clip-path-3"><path class="cls-1" d="M11.32,401.23H188.47V272.62H329.3v73.69H506.18v88.85H11.32ZM178.47,262.62V391.23H1.32v53.93H516.18V336.31H339.3V262.62Z"/></clipPath><linearGradient id="linear-gradient-3" x1="7303.61" y1="92.03" x2="7304.61" y2="92.03" gradientTransform="matrix(514.87, 0, 0, -514.87, -3760373.26, 47734.84)" gradientUnits="userSpaceOnUse"><stop offset="0" stop-color="#02e2bd"/><stop offset="1" stop-color="#274cf2"/></linearGradient><clipPath id="clip-path-4"><path class="cls-1" d="M254.31,303.85a23.08,23.08,0,0,1-11.08,4.93v8.51a28.72,28.72,0,0,0,8.27-2.49v17.55h11.39v-28.5Z"/></clipPath><linearGradient id="linear-gradient-4" x1="7303.27" y1="91.99" x2="7304.27" y2="91.99" gradientTransform="matrix(503.05, 0, 0, -503.05, -3673887.41, 46595.86)" xlink:href="#linear-gradient-3"/><clipPath id="clip-path-5"><path class="cls-1" d="M400.47,382.32l5.7,6a16,16,0,0,1,10.06-4c2.12,0,4,.57,4,1.51,0,1.1-2.65,1.71-5.74,2.52-8.55,2.24-13.39,7-14,12.83v4.8h31.72v-8H413.38c.85-.65,4.48-1.95,8-2.93,5.9-1.63,10.3-4.56,10.3-9.44,0-6.56-7.74-9-14.86-9-6.88,0-13,2.52-16.37,5.78"/></clipPath><linearGradient id="linear-gradient-5" x1="7303.4" y1="92.01" x2="7304.4" y2="92.01" gradientTransform="matrix(507.28, 0, 0, -507.28, -3704891.99, 47064.47)" xlink:href="#linear-gradient-3"/></defs><title>Asset 8</title><g id="Layer_2" data-name="Layer 2"><g id="Layer_1-2" data-name="Layer 1"><path class="cls-2" d="M58.58,381.24S53.8,364.9,46,355.84c-7.44-8.63-24-10-41.73-14-5.55-1.23-2.88-10.67,4.73-12.63,10.07-2.58,14.84-3.92,33.81-1,0,0-24-15.13-25.63-24s14.91-62.11,14.91-62.11,69.93,9,71.37,23.05c2.77,26.92,25,30.54,34.7,49.77s-11.38,38.82-11.38,46.22A71.69,71.69,0,0,0,128.53,378Z"/><path class="cls-3" d="M1.67,335.93s22-19.65,66,4.68c0,0,28.9-15.58,44.16,6"/><path class="cls-4" d="M472.11,328.44s4.78-16.34,12.59-25.4c7.43-8.63,24-10.05,41.73-14,5.55-1.23,2.87-10.67-4.74-12.63-10.06-2.58-14.84-3.92-33.81-1,0,0,24-15.13,25.63-24s-14.91-62.11-14.91-62.11-69.93,9-71.37,23c-2.76,26.92-25,30.54-34.69,49.77s11.37,38.82,11.37,46.22a71.69,71.69,0,0,1-1.75,16.82Z"/><path class="cls-3" d="M529,283.13s-22-19.65-66,4.68c0,0-28.9-15.58-44.16,6"/><g class="cls-5"><rect class="cls-6" x="32.09" y="202.27" width="124.04" height="100.7"/></g><polygon class="cls-7" points="156.13 300.99 156.13 326.31 32.09 326.31 32.09 297.38 69.5 254.59 105.98 302.96 131.37 277.59 156.13 300.99"/><path class="cls-8" d="M124.11,250.09A13.16,13.16,0,1,1,111,236.93a13.16,13.16,0,0,1,13.16,13.16"/><path class="cls-7" d="M194.38,76.27s-24.73,42.14-23.31,63.82,23.34,62.73,23.7,72.18,0,29.68,0,29.68l53.49,12.29s22.81-88.88-2.15-97.2-51.73-80.77-51.73-80.77"/><path class="cls-7" d="M331.23,76.27s30.12,42.88,28.71,64.56-24.79,62-25.15,71.44,0,29.68,0,29.68L281.3,254.24s-22.81-88.88,2.15-97.2,47.78-80.77,47.78-80.77"/><g class="cls-9"><polygon class="cls-10" points="421.82 90.32 525.93 159.15 518.89 238.66 461.55 324.37 324.66 227.21 421.82 90.32"/></g><polygon class="cls-8" points="519.89 238.66 479.01 279.54 479.01 238.66 519.89 238.66"/><polygon class="cls-11" points="42.66 160.57 47.19 148.32 34.4 150.95 32.09 139.74 44.57 137.18 35.56 128.17 43.65 120.08 53.86 130.29 58.87 116.75 69.6 120.72 65.06 132.97 77.86 130.34 80.16 141.55 67.68 144.11 76.69 153.12 68.6 161.21 58.4 151 53.39 164.54 42.66 160.57"/><g class="cls-12"><rect class="cls-13" x="1.32" y="262.62" width="514.86" height="182.54"/></g><g class="cls-14"><rect class="cls-15" x="243.23" y="303.85" width="19.66" height="28.5"/></g><g class="cls-16"><rect class="cls-17" x="400.47" y="376.54" width="31.71" height="29.39"/></g><rect class="cls-18" x="194.47" width="136.85" height="136.85"/><polygon class="cls-8" points="231.58 113.1 194.47 119.31 194.47 136.85 331.32 136.85 331.32 119.31 296.82 113.1 231.58 113.1"/><path class="cls-19" d="M259.76,14.05s-46,8.42-15.07,66.08l40.13-1.54s10.82-12,10-32.79-19.12-33.68-35-31.75"/><rect class="cls-20" x="250.87" y="79.97" width="26.9" height="33.13"/><path class="cls-19" d="M290.44,45.76a26,26,0,0,1-.35,4.26c-.11,1.06-.25,2.3-.42,3.66-9.63-4.45-15.81-22-15.81-22-10.42,8.5-28.33,11.2-35.67,12a26.17,26.17,0,0,1,52.25,2.09"/><path class="cls-20" d="M289.67,53.68c-1.83,14.15-4,41.84-25.4,41.84-22,0-24.52-33.31-25.8-45.37a26.45,26.45,0,0,1-.37-4.39c0-.7,0-1.4.09-2.09,7.34-.78,25.25-3.48,35.67-12,0,0,6.18,17.54,15.81,22"/><path class="cls-20" d="M239,53.78s-4.42-5.77-6.65-1.94.32,17.17,9.24,15.25Z"/><path class="cls-20" d="M289.41,53.78s4.43-5.77,6.65-1.94-.32,17.17-9.24,15.25Z"/><path class="cls-21" d="M244.69,46.62s16.43-4.54,16.31,7.81,0,15.81,0,15.81l3.27-3,1.79.61"/><path class="cls-18" d="M268.85,68.51a.64.64,0,1,1-.64-.64.64.64,0,0,1,.64.64"/><path class="cls-18" d="M252.06,45.53c.23.95-1.89,2.27-4.75,3S242,49,241.73,48s1.9-2.27,4.75-3,5.35-.47,5.58.48"/><path class="cls-18" d="M282.05,48.16c-.25.94-2.75,1.09-5.59.32s-4.93-2.14-4.67-3.09,2.76-1.09,5.59-.32,4.93,2.14,4.67,3.09"/><path class="cls-18" d="M252.63,57.32A2.61,2.61,0,1,1,250,54.71a2.61,2.61,0,0,1,2.61,2.61"/><path class="cls-21" d="M243.65,56.9s4.72-7.37,11.73.69"/><line class="cls-22" x1="246.49" y1="60.14" x2="254.38" y2="60.14"/><path class="cls-18" d="M272,57.59A2.61,2.61,0,1,0,274.62,55,2.61,2.61,0,0,0,272,57.59"/><path class="cls-21" d="M281.35,56.9s-4.73-7.37-11.73.69"/><line class="cls-22" x1="278.5" y1="60.14" x2="270.62" y2="60.14"/><path class="cls-22" d="M238.47,50.15c.6,13.46,6.22,59.34,38.76,40.65"/><path class="cls-22" d="M289.41,53.78a85.7,85.7,0,0,1-3.24,20.52"/><path class="cls-18" d="M255.38,75.43l19.24-2.07s-.55,10.18-9.62,10.45-9.62-8.38-9.62-8.38"/><path class="cls-22" d="M262.89,86.33s4.58,1.45,7.73-1.17"/><line class="cls-22" x1="272.51" y1="69.73" x2="277.23" y2="77.45"/><line class="cls-22" x1="255.38" y1="72.68" x2="254.38" y2="79.43"/><path class="cls-20" d="M250.87,113.1H231.58s13.42,12.41,36,12.41,29.25-12.41,29.25-12.41Z"/><path class="cls-7" d="M205.35,166.92l36.08-53.87s22.7,17.8,4.68,44-16.9,22.24-16.9,22.24Z"/><path class="cls-3" d="M241.43,113.05s24.75,16.9,1,49.3c0,0,16.23,11.39,7.42,34.09"/><path class="cls-7" d="M324.2,166.92l-36.07-53.87s-22.71,17.8-4.68,44,16.9,22.24,16.9,22.24Z"/><path class="cls-3" d="M288.13,113.05s-24.75,16.9-1,49.3c0,0-16.23,11.39-7.42,34.09"/></g></g></svg>